<svg width="25" height="25" viewBox="0 0 25 25" fill="none" xmlns="http://www.w3.org/2000/svg">
<path d="M21.3781 14.8339L21.378 14.834C21.0223 14.9777 20.8506 15.3826 20.9944 15.7383L22.1069 18.4902L22.3376 19.061L21.7742 18.8127L18.4701 17.3561C18.2942 17.2786 18.094 17.2774 17.9173 17.3528L17.8192 17.1229L17.9173 17.3528C16.7563 17.8482 15.5132 18.0989 14.2238 18.0989C9.03335 18.0989 5.51956 14.0321 5.51956 10.1912C5.51956 5.80792 9.44789 2.28343 14.2238 2.28343C18.9997 2.28343 22.9281 5.80792 22.9281 10.1912C22.9281 10.5341 22.8963 10.941 22.8412 11.3102L22.8412 11.3103C22.7846 11.6897 23.0463 12.0431 23.4257 12.0998L23.4258 12.0998C23.8051 12.1565 24.1586 11.8948 24.2152 11.5153L24.2152 11.5152C24.2811 11.0736 24.3173 10.6026 24.3173 10.1912C24.3173 7.69859 23.2626 5.35677 21.3388 3.59601L21.5075 3.41158L21.3388 3.596C19.437 1.85543 16.9112 0.894211 14.2238 0.894211C11.5364 0.894211 9.01062 1.85542 7.10885 3.59596C5.38942 5.16966 4.3654 7.2074 4.16673 9.40095L4.15589 9.52054L4.05578 9.58683C1.90315 11.0124 0.635285 13.2899 0.635285 15.7355C0.635285 17.2648 1.11656 18.7156 2.03534 19.9666L2.11789 20.079L2.06562 20.2083L0.685925 23.6212L0.68592 23.6213C0.579962 23.8833 0.643411 24.1835 0.846406 24.3803L0.846446 24.3803C0.978659 24.5085 1.15283 24.5762 1.32999 24.5762L21.3781 14.8339ZM21.3781 14.8339C21.7336 14.6901 22.1385 14.8619 22.2823 15.2176C22.2823 15.2176 22.2823 15.2176 22.2823 15.2176L24.2666 20.1262L24.4984 20.0325L24.2666 20.1262C24.3726 20.3883 24.3091 20.6884 24.1062 20.8852L24.1061 20.8852M21.3781 14.8339L24.1061 20.8852M1.61002 24.5172L1.61006 24.5172L5.58823 22.7635L5.68114 22.7226L5.77629 22.758C6.74851 23.1199 7.77675 23.3034 8.83949 23.3034C8.85199 23.3034 8.86506 23.3024 8.89119 23.3005L8.89938 23.2999L8.90759 23.2999C10.4444 23.2882 11.9367 22.884 13.2276 22.1293C14.3841 21.4531 15.3333 20.5256 15.9978 19.4326L16.0564 19.3363L16.1673 19.3164C16.8226 19.1987 17.463 19.021 18.0845 18.7834L18.1805 18.7467L18.2746 18.7881L23.3424 21.0221C23.3424 21.0221 23.3424 21.0221 23.3425 21.0221C23.4327 21.0619 23.528 21.0812 23.6224 21.0812L1.61002 24.5172ZM1.61002 24.5172C1.51997 24.5569 1.42471 24.5762 1.33008 24.5762L1.61002 24.5172ZM24.1061 20.8852C23.9739 21.0134 23.7997 21.0811 23.6224 21.0812L24.1061 20.8852ZM8.84073 21.9118C10.7648 21.9115 12.586 21.1601 13.8625 19.9036L14.2699 19.5026L13.6989 19.4757C11.1402 19.3555 8.77493 18.3572 6.98817 16.6376C5.55193 15.2553 4.60253 13.4981 4.26646 11.6661L4.18178 11.2045L3.84594 11.5323C2.69007 12.6606 2.0245 14.1541 2.0245 15.7355C2.0245 17.1164 2.51753 18.4221 3.44401 19.509L3.63427 19.3469L3.44401 19.509C3.6119 19.706 3.65638 19.98 3.55939 20.22L2.84578 21.9852L2.61504 22.556L3.1784 22.3077L5.39053 21.3325L5.39056 21.3325C5.56645 21.255 5.76657 21.2538 5.94324 21.3292L5.94331 21.3292C6.84172 21.7125 7.80309 21.9086 8.80005 21.9137L8.80005 21.914L8.81145 21.9135L8.82704 21.9127L8.83268 21.9123L8.83688 21.912C8.839 21.9119 8.8402 21.9118 8.84073 21.9118ZM8.84073 21.9118C8.84035 21.9118 8.83996 21.9118 8.83958 21.9118C8.84048 21.9118 8.84107 21.9117 8.84107 21.9117C8.84107 21.9117 8.84096 21.9117 8.84073 21.9118Z" fill="#020202" stroke="#F5FAFF" stroke-width="0.5"/>
<path d="M14.1765 11.1766C14.6982 11.1766 15.1212 10.7537 15.1212 10.232C15.1212 9.71034 14.6982 9.28742 14.1765 9.28742C13.6548 9.28742 13.2319 9.71034 13.2319 10.232C13.2319 10.7537 13.6548 11.1766 14.1765 11.1766Z" fill="#020202"/>
<path d="M17.9558 11.1766C18.4775 11.1766 18.9004 10.7537 18.9004 10.232C18.9004 9.71034 18.4775 9.28742 17.9558 9.28742C17.4341 9.28742 17.0112 9.71034 17.0112 10.232C17.0112 10.7537 17.4341 11.1766 17.9558 11.1766Z" fill="#020202"/>
<path d="M10.3982 11.1766C10.9199 11.1766 11.3428 10.7537 11.3428 10.232C11.3428 9.71034 10.9199 9.28742 10.3982 9.28742C9.87653 9.28742 9.45361 9.71034 9.45361 10.232C9.45361 10.7537 9.87653 11.1766 10.3982 11.1766Z" fill="#020202"/>
</svg>
